# xmcd CD database file
#
# Track frame offsets:
#	150
#	19205
#	34361
#	50044
#	64600
#	81370
#	101402
#	114460
#	134336
#	145673
#	156552
#	170697
#
# Disc length: 2542 seconds
#
# Revision: 0
# Processed by: cddbd v1.4PL0 Copyright (c) Steve Scherf et al.
# Submitted via: CDex 1.50Beta7
#
DISCID=ab09ec0c
DTITLE=k.d. lang - Absolute Torch And Twang
DYEAR=1989
DGENRE=Country
TTITLE0=Luck in My Eyes
TTITLE1=Three Days
TTITLE2=Trail of Broken Hearts
TTITLE3=Big Boned Gal
TTITLE4=Didn't I¿
TTITLE5=Wallflower Waltz
TTITLE6=Full Moon Full of Love
TTITLE7=Pullin' Back the Reins
TTITLE8=Big, Big Love
TTITLE9=It's Me
TTITLE10=Walkin' In and Out of Your Arms
TTITLE11=Nowhere to Stand
EXTD=YEAR: 1989
EXTT0=
EXTT1=
EXTT2=
EXTT3=
EXTT4=
EXTT5=
EXTT6=
EXTT7=
EXTT8=
EXTT9=
EXTT10=
EXTT11=
PLAYORDER=
